# xmcd
#
# Track frame offsets:
# 150
# 16420
# 40220
# 55473
# 70787
# 88644
# 106479
# 132975
# 148051
# 162992
# 180438
# 202283
# 225573
# 248952
#
# Disc length: 3758 seconds
#
#
# Revision: 0
# Processed by: cddbd v1.5.2PL0 Copyright (c) Steve Scherf et al.
# Submitted via: FreeRIP 2.945 
#
DISCID=c90eac0e
DTITLE=Sean Lane - Beyond the Delta
DYEAR=2007
DGENRE=Blues
TTITLE0=Ain't Seen A Dime For My Time
TTITLE1=Leavin' Town Blues
TTITLE2=Seven Days Too Long
TTITLE3=Woman On My Mind
TTITLE4=Just To Be Your Fool
TTITLE5=Hungry Blues
TTITLE6=If I Only Had A Prayer
TTITLE7=Hard To Please
TTITLE8=Lori Lou
TTITLE9=Rail Road Blues
TTITLE10=Too Many Years
TTITLE11=Clean Hands and Stright Eyes
TTITLE12=She Don't Love Me Like My Mama Do
TTITLE13=Been On 61 All Day
EXTD=
EXTT0=
EXTT1=
EXTT2=
EXTT3=
EXTT4=
EXTT5=
EXTT6=
EXTT7=
EXTT8=
EXTT9=
EXTT10=
EXTT11=
EXTT12=
EXTT13=
PLAYORDER=
